Coordinates
version=1
nRows=5
nColumns=40
inDegrees=yes

Units are S.I. units (second, meters, Newtons, ...)
Angles are in degrees.

endheader
time	pelvis_tilt	pelvis_list	pelvis_rotation	pelvis_tx	pelvis_ty	pelvis_tz	hip_flexion_r	hip_adduction_r	hip_rotation_r	knee_angle_r	knee_angle_r_beta	ankle_angle_r	subtalar_angle_r	mtp_angle_r	hip_flexion_l	hip_adduction_l	hip_rotation_l	knee_angle_l	knee_angle_l_beta	ankle_angle_l	subtalar_angle_l	mtp_angle_l	lumbar_extension	lumbar_bending	lumbar_rotation	arm_flex_r	arm_add_r	arm_rot_r	elbow_flex_r	pro_sup_r	wrist_flex_r	wrist_dev_r	arm_flex_l	arm_add_l	arm_rot_l	elbow_flex_l	pro_sup_l	wrist_flex_l	wrist_dev_l
     20.70678571	     -3.34606285	     -4.76384158	     12.92584471	      0.95233297	      0.92024194	      0.53917536	      4.05550201	      4.85483029	    -13.56844891	     17.04893701	     17.04893701	     19.13197790	     -1.03852204	     -2.18492682	     28.77089133	    -10.75467993	      2.51277496	     19.03163487	     19.03163487	     -2.67200271	     -0.75915594	     -0.11429775	     -8.27054956	      4.97601927	      3.73642728	     57.79765507	    -18.07264632	     -3.90900116	     96.96150255	     44.31554346	      0.00000000	      0.00000000	    -19.17426136	     -9.05583817	     22.07433172	     31.75081978	     42.34378387	      0.00000000	      0.00000000
     20.72857143	     -3.34351452	     -4.96956431	     12.76688540	      0.95384087	      0.91921823	      0.53590946	      3.47576381	      4.98592078	    -13.36485385	     16.73861990	     16.73861990	     19.41031321	     -0.88503395	     -2.22033825	     28.37123172	    -10.81484552	      2.74309601	     19.38875087	     19.38875087	     -1.45485939	     -1.24069701	     -0.49173640	     -8.09274712	      4.95387467	      3.62610187	     57.79725215	    -17.73519309	     -3.80937536	     97.43414182	     44.30989887	      0.00000000	      0.00000000	    -18.64391611	     -9.38011910	     22.27012975	     31.59950925	     42.36420824	      0.00000000	      0.00000000
     20.75035714	     -3.39809345	     -5.06319187	     12.56662965	      0.95544889	      0.91836055	      0.53233957	      2.98498841	      4.93984797	    -13.14467015	     16.55953645	     16.55953645	     19.67332813	     -0.77091414	     -2.25970783	     27.99060713	    -10.75953364	      2.83673153	     19.75002968	     19.75002968	     -0.31449359	     -1.68476011	     -0.87121300	     -7.88191018	      4.80695133	      3.57230893	     57.62019033	    -17.47695996	     -3.67639188	     97.62491524	     44.30322882	      0.00000000	      0.00000000	    -18.07547309	     -9.81661706	     22.25276692	     31.55860104	     42.38745607	      0.00000000	      0.00000000
     20.77214286	     -3.50335212	     -5.14261987	     12.36258654	      0.95711481	      0.91769680	      0.52848409	      2.53144984	      4.84367107	    -12.91832988	     16.35815252	     16.35815252	     19.87515072	     -0.63256950	     -2.27285657	     27.68249485	    -10.66376434	      2.93707993	     20.11740652	     20.11740652	      0.73708042	     -2.12103869	     -1.22899296	     -7.63856915	      4.64949702	      3.50197494	     57.44700546	    -17.27409241	     -3.56501271	     97.73825736	     44.29784440	      0.00000000	      0.00000000	    -17.53157913	    -10.26088572	     22.19479019	     31.53803439	     42.40979814	      0.00000000	      0.00000000
     20.79392857	     -3.45080498	     -5.30754788	     12.15714067	      0.95885874	      0.91753860	      0.52428500	      1.66320575	      4.89153616	    -12.81089705	     15.64148210	     15.64148210	     19.83901850	     -0.21453259	     -2.09074120	     27.49999901	    -10.62273206	      3.27126791	     20.95180298	     20.95180298	      1.83942880	     -3.03185049	     -1.18751265	     -7.63580492	      4.70247559	      3.57490210	     57.08878357	    -17.28618720	     -3.53499318	     98.05557266	     44.29788148	      0.00000000	      0.00000000	    -16.80041085	    -10.68492957	     22.23613196	     31.23744900	     42.45432961	      0.00000000	      0.00000000
